<svg width="14" height="16" viewBox="0 0 14 16" fill="none" xmlns="http://www.w3.org/2000/svg">
<path d="M12.7572 5.4544C12.6633 5.5264 11.0058 6.4496 11.0058 8.5024C11.0058 10.8768 13.115 11.7168 13.1781 11.7376C13.1684 11.7888 12.843 12.888 12.066 14.008C11.3732 14.9936 10.6496 15.9776 9.54889 15.9776C8.44816 15.9776 8.16488 15.3456 6.89418 15.3456C5.65585 15.3456 5.21555 15.9984 4.2087 15.9984C3.20185 15.9984 2.49932 15.0864 1.69157 13.9664C0.755947 12.6512 0 10.608 0 8.6688C0 5.5584 2.04608 3.9088 4.05978 3.9088C5.12976 3.9088 6.02168 4.6032 6.69345 4.6032C7.33285 4.6032 8.32999 3.8672 9.54728 3.8672C10.0086 3.8672 11.6662 3.9088 12.7572 5.4544ZM8.96939 2.5504C9.47281 1.96 9.82893 1.1408 9.82893 0.3216C9.82893 0.208 9.81922 0.0928 9.79818 0C8.9791 0.0304 8.00463 0.5392 7.41703 1.2128C6.95569 1.7312 6.5251 2.5504 6.5251 3.3808C6.5251 3.5056 6.54615 3.6304 6.55586 3.6704C6.60766 3.68 6.69183 3.6912 6.77601 3.6912C7.51091 3.6912 8.43521 3.2048 8.96939 2.5504Z" fill="#686563"/>
</svg>
