<svg width="28" height="29" viewBox="0 0 28 29" fill="none" xmlns="http://www.w3.org/2000/svg">
<path fill-rule="evenodd" clip-rule="evenodd" d="M19.7338 9.67941C20.109 9.27417 20.0847 8.64147 19.6794 8.26624C19.2742 7.89102 18.6415 7.91535 18.2662 8.3206L14 12.9281L9.73377 8.3206C9.35854 7.91535 8.72584 7.89102 8.3206 8.26624C7.91535 8.64147 7.89102 9.27417 8.26624 9.67941L12.6372 14.4L8.26624 19.1206C7.89102 19.5258 7.91535 20.1585 8.3206 20.5338C8.72584 20.909 9.35854 20.8847 9.73377 20.4794L14 15.8719L18.2662 20.4794C18.6415 20.8847 19.2742 20.909 19.6794 20.5338C20.0847 20.1585 20.109 19.5258 19.7338 19.1206L15.3628 14.4L19.7338 9.67941Z" fill="#000033"/>
</svg>
