<svg width="14" height="16" viewBox="0 0 14 16" fill="none" xmlns="http://www.w3.org/2000/svg">
<path d="M6.46971 3.78462C6.46971 3.8359 6.41843 3.8359 6.41843 3.8359H6.36715C6.31587 3.8359 6.31587 3.78462 6.26459 3.73333C6.26459 3.73333 6.2133 3.68205 6.2133 3.63077C6.2133 3.57949 6.2133 3.57949 6.26459 3.57949L6.36715 3.63077C6.41843 3.68205 6.46971 3.73333 6.46971 3.78462ZM5.54664 3.27179C5.54664 3.01538 5.44407 2.86154 5.29023 2.86154C5.29023 2.86154 5.29023 2.91282 5.23894 2.91282V3.01538H5.39279C5.39279 3.11795 5.44407 3.16923 5.44407 3.27179H5.54664ZM7.34151 3.01538C7.44407 3.01538 7.49535 3.11795 7.54664 3.27179H7.6492C7.59792 3.22051 7.59792 3.16923 7.59792 3.11795C7.59792 3.06667 7.59792 3.01538 7.54664 2.9641C7.49535 2.91282 7.44407 2.86154 7.39279 2.86154C7.39279 2.86154 7.34151 2.91282 7.29023 2.91282C7.29023 2.9641 7.34151 2.9641 7.34151 3.01538ZM5.80305 3.8359C5.75176 3.8359 5.75176 3.8359 5.75176 3.78462C5.75176 3.73333 5.75176 3.68205 5.80305 3.63077C5.90561 3.63077 5.95689 3.57949 5.95689 3.57949C6.00818 3.57949 6.00818 3.63077 6.00818 3.63077C6.00818 3.68205 5.95689 3.73333 5.85433 3.8359H5.80305ZM5.23894 3.78462C5.03382 3.68205 4.98253 3.5282 4.98253 3.27179C4.98253 3.11795 4.98253 3.01538 5.0851 2.91282C5.13638 2.81026 5.23894 2.75897 5.34151 2.75897C5.44407 2.75897 5.49535 2.81026 5.59792 2.91282C5.6492 3.06667 5.70048 3.22051 5.70048 3.37436V3.47692H5.75176V3.42564C5.80305 3.42564 5.80305 3.32308 5.80305 3.11795C5.80305 2.9641 5.80305 2.81026 5.70048 2.65641C5.59792 2.50256 5.49535 2.4 5.29023 2.4C5.13638 2.4 4.98253 2.50256 4.93125 2.65641C4.82869 2.86154 4.80818 3.01538 4.80818 3.27179C4.80818 3.47692 4.87997 3.68205 5.0851 3.88718C5.13638 3.8359 5.18766 3.8359 5.23894 3.78462ZM11.6492 11.0154C11.7005 11.0154 11.7005 10.9949 11.7005 10.9487C11.7005 10.8359 11.6492 10.7026 11.4954 10.5538C11.3415 10.4 11.0851 10.3026 10.7774 10.2615C10.7261 10.2564 10.6748 10.2564 10.6748 10.2564C10.6236 10.2462 10.6236 10.2462 10.5723 10.2462C10.521 10.241 10.4184 10.2308 10.3671 10.2205C10.521 9.74359 10.5723 9.32308 10.5723 8.95385C10.5723 8.44103 10.4697 8.08205 10.2646 7.77436C10.0595 7.46667 9.85433 7.31282 9.59792 7.26154C9.54664 7.31282 9.54664 7.31282 9.54664 7.3641C9.80305 7.46667 10.0595 7.6718 10.2133 7.97949C10.3671 8.33846 10.4184 8.64615 10.4184 9.00513C10.4184 9.29231 10.3671 9.71795 10.162 10.2615C9.95689 10.3436 9.75176 10.5333 9.59792 10.8308C9.59792 10.8769 9.59792 10.9026 9.6492 10.9026C9.6492 10.9026 9.70048 10.8564 9.75176 10.7692C9.85433 10.6821 9.90561 10.5949 10.0082 10.5077C10.162 10.4205 10.2646 10.3744 10.4184 10.3744C10.6748 10.3744 10.9313 10.4103 11.0851 10.4821C11.2902 10.5487 11.3928 10.6205 11.4441 10.7026C11.4954 10.7795 11.5466 10.8513 11.5979 10.9179C11.5979 10.9846 11.6492 11.0154 11.6492 11.0154ZM6.93125 3.57949C6.87997 3.5282 6.87997 3.42564 6.87997 3.32308C6.87997 3.11795 6.87997 3.01538 6.98253 2.86154C7.0851 2.75897 7.18766 2.70769 7.29023 2.70769C7.44407 2.70769 7.54664 2.81026 7.6492 2.91282C7.70048 3.06667 7.75176 3.16923 7.75176 3.32308C7.75176 3.57949 7.6492 3.73333 7.44407 3.78462C7.44407 3.78462 7.49535 3.8359 7.54664 3.8359C7.6492 3.8359 7.70048 3.88718 7.80305 3.93846C7.85433 3.63077 7.90561 3.42564 7.90561 3.16923C7.90561 2.86154 7.85433 2.65641 7.75176 2.50256C7.59792 2.34872 7.44407 2.29744 7.23894 2.29744C7.0851 2.29744 6.93125 2.34872 6.77741 2.45128C6.67484 2.60513 6.62356 2.70769 6.62356 2.86154C6.62356 3.11795 6.67484 3.32308 6.77741 3.5282C6.82869 3.5282 6.87997 3.57949 6.93125 3.57949ZM7.54664 4.4C6.87997 4.86154 6.36715 5.06667 5.95689 5.06667C5.59792 5.06667 5.23894 4.91282 4.93125 4.65641C4.98253 4.75897 5.03382 4.86154 5.0851 4.91282L5.39279 5.22051C5.59792 5.42564 5.85433 5.5282 6.11074 5.5282C6.46971 5.5282 6.87997 5.32308 7.39279 4.9641L7.85433 4.65641C7.95689 4.55385 8.05946 4.45128 8.05946 4.29744C8.05946 4.24615 8.05946 4.19487 8.00817 4.19487C7.95689 4.09231 7.70048 3.93846 7.18766 3.78462C6.72612 3.57949 6.36715 3.47692 6.16202 3.47692C6.00818 3.47692 5.75176 3.57949 5.39279 3.78462C5.0851 3.98974 4.87997 4.19487 4.87997 4.4C4.87997 4.4 4.93125 4.45128 4.98253 4.55385C5.29023 4.81026 5.59792 4.9641 5.90561 4.9641C6.31587 4.9641 6.82869 4.75897 7.49535 4.24615V4.34872C7.54664 4.34872 7.54664 4.4 7.54664 4.4ZM8.72612 14.759C8.93125 15.1446 9.29023 15.3385 9.70048 15.3385C9.80305 15.3385 9.90561 15.3231 10.0082 15.2923C10.1107 15.2718 10.2133 15.2359 10.2646 15.1949C10.3159 15.159 10.3671 15.1231 10.4184 15.0821C10.521 15.0462 10.521 15.0205 10.5723 14.9949L11.4441 14.241C11.6492 14.0774 11.8543 13.9344 12.1107 13.8103C12.3159 13.6872 12.521 13.6051 12.6236 13.559C12.7774 13.5179 12.88 13.4564 12.9825 13.3744C13.0338 13.2974 13.0851 13.2 13.0851 13.0769C13.0851 12.9282 12.9825 12.8154 12.88 12.7333C12.7774 12.6513 12.6748 12.5949 12.5723 12.559C12.4697 12.5231 12.3671 12.441 12.2133 12.3026C12.1107 12.1692 12.0082 11.9846 11.9569 11.7436L11.9056 11.4462C11.8543 11.3077 11.8543 11.2051 11.803 11.1487C11.803 11.1333 11.803 11.1282 11.7518 11.1282C11.7005 11.1282 11.5979 11.1744 11.5466 11.2615C11.4441 11.3487 11.3415 11.4462 11.2389 11.5487C11.1877 11.6513 11.0338 11.7436 10.9313 11.8308C10.7774 11.9179 10.6236 11.9641 10.521 11.9641C10.1107 11.9641 9.90561 11.8513 9.75176 11.6308C9.6492 11.4667 9.59792 11.2769 9.54664 11.0615C9.44407 10.9744 9.39279 10.9282 9.29023 10.9282C9.03382 10.9282 8.93125 11.1949 8.93125 11.7333V13.3282C8.93125 13.3744 8.87997 13.4769 8.87997 13.6359C8.82869 13.7949 8.82869 13.9754 8.82869 14.1795L8.72612 14.7487V14.7574M1.29023 14.4862C1.76715 14.5559 2.31587 14.7051 2.93638 14.9328C3.55689 15.1585 3.93638 15.2764 4.07484 15.2764C4.43382 15.2764 4.73125 15.1174 4.97741 14.8103C5.02869 14.7108 5.02869 14.5938 5.02869 14.4595C5.02869 13.9749 4.73638 13.3621 4.15177 12.6185L3.80305 12.1518C3.73125 12.0544 3.64407 11.9056 3.53125 11.7056C3.42356 11.5056 3.32612 11.3518 3.2492 11.2441C3.18253 11.1262 3.07484 11.0082 2.93638 10.8903C2.80305 10.7723 2.6492 10.6954 2.47997 10.6544C2.26459 10.6954 2.11587 10.7672 2.04407 10.8646C1.97228 10.9621 1.93125 11.0697 1.921 11.1826C1.90561 11.2903 1.87484 11.3621 1.82356 11.3979C1.77228 11.4287 1.6851 11.4544 1.56715 11.48C1.54151 11.48 1.49535 11.48 1.42869 11.4851H1.29023C1.01843 11.4851 0.833816 11.5159 0.73638 11.5672C0.608175 11.7159 0.541508 11.8851 0.541508 12.0646C0.541508 12.1467 0.562021 12.2851 0.603047 12.48C0.644073 12.6697 0.664585 12.8236 0.664585 12.9313C0.664585 13.1415 0.603047 13.3518 0.474842 13.5621C0.346637 13.7826 0.27997 13.9467 0.27997 14.0636C0.331252 14.2626 0.669714 14.4026 1.29023 14.4846M2.99792 9.82308C2.99792 9.46923 3.09023 9.07949 3.27997 8.61795C3.46459 8.15641 3.6492 7.84872 3.82869 7.64359C3.81843 7.59231 3.79279 7.59231 3.75177 7.59231L3.70048 7.54103C3.55176 7.69487 3.37228 8.05385 3.15689 8.56667C2.94151 9.02821 2.82869 9.45385 2.82869 9.76667C2.82869 9.99744 2.8851 10.1974 2.98766 10.3718C3.10048 10.541 3.37228 10.7872 3.80305 11.1L4.34664 11.4538C4.92612 11.9564 5.23382 12.3051 5.23382 12.5103C5.23382 12.6179 5.18253 12.7256 5.02869 12.8436C4.92612 12.9667 4.78766 13.0282 4.66971 13.0282C4.65946 13.0282 4.65433 13.0385 4.65433 13.0641C4.65433 13.0692 4.70561 13.1718 4.8133 13.3718C5.02869 13.6641 5.49023 13.8077 6.10561 13.8077C7.23382 13.8077 8.10561 13.3462 8.77228 12.4231C8.77228 12.1667 8.77228 12.0077 8.72099 11.941V11.7513C8.72099 11.4179 8.77228 11.1667 8.87484 11.0026C8.97741 10.8385 9.07997 10.7615 9.23382 10.7615C9.33638 10.7615 9.43894 10.7974 9.54151 10.8744C9.59279 10.4795 9.59279 10.1359 9.59279 9.82821C9.59279 9.36154 9.59279 8.97692 9.49023 8.61795C9.43894 8.31026 9.33638 8.05385 9.23382 7.84872L8.92612 7.38718C8.82356 7.23333 8.77228 7.07949 8.66971 6.92564C8.61843 6.72051 8.56715 6.56667 8.56715 6.31026C8.4133 6.05385 8.31074 5.79744 8.15689 5.54103C8.05433 5.28462 7.95176 5.0282 7.8492 4.82308L7.38766 5.18205C6.87484 5.54103 6.46459 5.69487 6.10561 5.69487C5.79792 5.69487 5.54151 5.64359 5.38766 5.43846L5.07997 5.18205C5.07997 5.3359 5.02869 5.54103 4.92612 5.74615L4.60305 6.36154C4.45946 6.72051 4.38253 6.92564 4.36715 7.07949C4.34664 7.18205 4.33125 7.28462 4.321 7.28462L3.93638 8.05385C3.521 8.82308 3.31074 9.5359 3.31074 10.1256C3.31074 10.2436 3.321 10.3667 3.34151 10.4897C3.11074 10.3308 2.99792 10.1103 2.99792 9.82308ZM6.66971 14.6744C6.00305 14.6744 5.49023 14.7646 5.13125 14.9436V14.9282C4.87484 15.2359 4.58766 15.3949 4.18766 15.3949C3.93638 15.3949 3.54151 15.2974 3.00818 15.1026C2.46971 14.9179 1.99279 14.7764 1.57741 14.6831C1.53638 14.6713 1.44407 14.6538 1.29535 14.6303C1.15176 14.6072 1.01843 14.5836 0.900483 14.56C0.79279 14.5369 0.669714 14.5021 0.53638 14.4549C0.408175 14.4144 0.305611 14.3615 0.228688 14.2974C0.157919 14.2328 0.123047 14.16 0.123047 14.0785C0.123047 13.9964 0.140483 13.9087 0.175355 13.8154C0.208175 13.759 0.244073 13.7026 0.27997 13.6513C0.315867 13.5949 0.346637 13.5436 0.367149 13.4923C0.397919 13.4462 0.418431 13.4 0.438944 13.3487C0.459457 13.3026 0.47997 13.2564 0.490226 13.2C0.500483 13.1487 0.510739 13.0974 0.510739 13.0462C0.510739 12.9949 0.490226 12.841 0.449201 12.5692C0.408175 12.3026 0.387662 12.1333 0.387662 12.0615C0.387662 11.8359 0.438944 11.6564 0.551765 11.5282C0.664585 11.4 0.772278 11.3333 0.885098 11.3333H1.47484C1.521 11.3333 1.59279 11.3077 1.70048 11.2462C1.73638 11.1641 1.76715 11.0974 1.78766 11.0359C1.8133 10.9744 1.82356 10.9282 1.83382 10.9077C1.84407 10.8769 1.85433 10.8462 1.86459 10.8205C1.8851 10.7846 1.91074 10.7436 1.94664 10.7026C1.90561 10.6513 1.8851 10.5846 1.8851 10.5026C1.8851 10.4462 1.8851 10.3949 1.89535 10.3641C1.89535 10.1795 1.98253 9.91795 2.16715 9.57436L2.34664 9.25128C2.49535 8.97436 2.60818 8.76923 2.69023 8.5641C2.77741 8.35897 2.86971 8.05128 2.97228 7.64103C3.05433 7.28205 3.2492 6.92308 3.55689 6.5641L3.94151 6.10256C4.20818 5.79487 4.38253 5.53846 4.47997 5.33333C4.57741 5.12821 4.62869 4.87179 4.62869 4.66667C4.62869 4.5641 4.60305 4.25641 4.54664 3.74359C4.49535 3.23077 4.46971 2.71795 4.46971 2.25641C4.46971 1.89744 4.50048 1.64103 4.56715 1.38462C4.63382 1.12821 4.75177 0.871795 4.92612 0.666667C5.07997 0.461538 5.2851 0.25641 5.59279 0.153846C5.90048 0.051282 6.25946 0 6.66971 0C6.82356 0 6.97741 0 7.13125 0.0512821C7.2851 0.0512821 7.49023 0.102564 7.74664 0.205128C7.95176 0.307692 8.15689 0.410256 8.31074 0.564103C8.51587 0.717949 8.66971 0.974359 8.82356 1.23077C8.92612 1.53846 9.02869 1.84615 9.07997 2.25641C9.13125 2.51282 9.13125 2.76923 9.18253 3.12821C9.18253 3.4359 9.23382 3.64103 9.23382 3.79487C9.2851 3.94872 9.2851 4.15385 9.33638 4.41026C9.38766 4.61538 9.43894 4.82051 9.54151 4.97436C9.64407 5.17949 9.74664 5.38462 9.90048 5.58974C10.0543 5.84615 10.2595 6.10256 10.4646 6.41026C10.9261 6.92308 11.2851 7.48718 11.4902 8.05128C11.7466 8.5641 11.9005 9.23077 11.9005 9.94359C11.9005 10.2974 11.8492 10.641 11.7466 10.9744C11.8492 10.9744 11.9005 11.0154 11.9518 11.0872C12.003 11.159 12.0543 11.3128 12.1056 11.5538L12.1569 11.9333C12.2082 12.0462 12.2595 12.1538 12.4133 12.2462C12.5159 12.3385 12.6184 12.4154 12.7723 12.4769C12.8748 12.5282 13.0287 12.6 13.1313 12.6923C13.2338 12.7949 13.2851 12.9026 13.2851 13.0154C13.2851 13.1897 13.2338 13.3179 13.1313 13.4103C13.0287 13.5128 12.9261 13.5846 12.7723 13.6308C12.6697 13.6821 12.4646 13.7846 12.1569 13.9292C11.9005 14.081 11.6441 14.2651 11.3877 14.4831L10.8748 14.9195C10.6697 15.1195 10.4646 15.2631 10.3107 15.3503C10.1569 15.4426 9.95176 15.4887 9.74664 15.4887L9.38766 15.4477C8.97741 15.34 8.72099 15.1349 8.56715 14.8221C7.74664 14.7226 7.07997 14.6733 6.66971 14.6733" fill="#686563"/>
</svg>
