<svg width="40" height="40" viewBox="0 0 40 40" fill="none" xmlns="http://www.w3.org/2000/svg">
<rect width="40" height="40" rx="20" fill="#E20626"/>
<path d="M12.3331 26.5V15.42L10.0331 15.96V14L13.4131 12.5H14.9931V26.5H12.3331ZM23.4477 26.74C22.1543 26.74 21.0477 26.44 20.1277 25.84C19.2077 25.2267 18.4943 24.38 17.9877 23.3C17.4943 22.2067 17.2477 20.94 17.2477 19.5C17.2477 18.0733 17.4943 16.8133 17.9877 15.72C18.4943 14.6267 19.2077 13.78 20.1277 13.18C21.0477 12.5667 22.1543 12.26 23.4477 12.26C24.741 12.26 25.8477 12.5667 26.7677 13.18C27.6877 13.78 28.3943 14.6267 28.8877 15.72C29.3943 16.8133 29.6477 18.0733 29.6477 19.5C29.6477 20.94 29.3943 22.2067 28.8877 23.3C28.3943 24.38 27.6877 25.2267 26.7677 25.84C25.8477 26.44 24.741 26.74 23.4477 26.74ZM23.4477 24.44C24.501 24.44 25.361 24 26.0277 23.12C26.6943 22.24 27.0277 21.0333 27.0277 19.5C27.0277 17.9667 26.6943 16.76 26.0277 15.88C25.361 15 24.501 14.56 23.4477 14.56C22.381 14.56 21.5143 15 20.8477 15.88C20.1943 16.76 19.8677 17.9667 19.8677 19.5C19.8677 21.0333 20.1943 22.24 20.8477 23.12C21.5143 24 22.381 24.44 23.4477 24.44Z" fill="white"/>
</svg>
