<svg width="40" height="40" viewBox="0 0 40 40" fill="none" xmlns="http://www.w3.org/2000/svg">
<rect width="40" height="40" rx="20" fill="#E20626"/>
<path d="M20.1788 26.74C19.1522 26.74 18.2655 26.56 17.5188 26.2C16.7855 25.84 16.2055 25.3467 15.7788 24.72C15.3655 24.08 15.1255 23.36 15.0588 22.56H17.5588C17.6788 23.1333 17.9722 23.6133 18.4388 24C18.9055 24.3733 19.4855 24.56 20.1788 24.56C20.9255 24.56 21.5322 24.2867 21.9988 23.74C22.4788 23.1933 22.7188 22.5133 22.7188 21.7C22.7188 20.86 22.4788 20.1933 21.9988 19.7C21.5322 19.2067 20.9388 18.96 20.2188 18.96C19.6188 18.96 19.0988 19.1067 18.6588 19.4C18.2188 19.6933 17.9055 20.06 17.7188 20.5H15.2588L16.4588 12.5H24.2188V14.74H18.3788L17.7388 17.98C18.0322 17.66 18.4322 17.4 18.9388 17.2C19.4455 16.9867 20.0122 16.88 20.6388 16.88C21.6388 16.88 22.4722 17.1067 23.1388 17.56C23.8055 18 24.3122 18.5867 24.6588 19.32C25.0055 20.04 25.1788 20.8267 25.1788 21.68C25.1788 22.6533 24.9655 23.52 24.5388 24.28C24.1255 25.04 23.5388 25.64 22.7788 26.08C22.0322 26.52 21.1655 26.74 20.1788 26.74Z" fill="white"/>
</svg>
