<svg width="40" height="40" viewBox="0 0 40 40" fill="none" xmlns="http://www.w3.org/2000/svg">
<rect width="40" height="40" rx="20" fill="#E20626"/>
<path d="M19.8021 26.74C18.8288 26.74 18.0088 26.5533 17.3421 26.18C16.6754 25.7933 16.1554 25.2933 15.7821 24.68C15.4088 24.0667 15.1888 23.4067 15.1221 22.7H17.5021C17.6088 23.3133 17.8621 23.7867 18.2621 24.12C18.6754 24.4533 19.1954 24.62 19.8221 24.62C20.7154 24.62 21.4354 24.2133 21.9821 23.4C22.5288 22.5733 22.8221 21.32 22.8621 19.64C22.5421 20.1867 22.0554 20.64 21.4021 21C20.7621 21.36 20.0554 21.54 19.2821 21.54C18.5088 21.54 17.7821 21.3533 17.1021 20.98C16.4221 20.6067 15.8688 20.08 15.4421 19.4C15.0154 18.72 14.8021 17.92 14.8021 17C14.8021 16.16 15.0088 15.38 15.4221 14.66C15.8354 13.94 16.4088 13.36 17.1421 12.92C17.8754 12.48 18.7354 12.26 19.7221 12.26C20.7754 12.26 21.6621 12.4533 22.3821 12.84C23.1021 13.2267 23.6754 13.7467 24.1021 14.4C24.5421 15.0533 24.8554 15.78 25.0421 16.58C25.2421 17.38 25.3421 18.2 25.3421 19.04C25.3421 20.6 25.1221 21.96 24.6821 23.12C24.2554 24.2667 23.6221 25.16 22.7821 25.8C21.9554 26.4267 20.9621 26.74 19.8021 26.74ZM19.8821 19.38C20.3754 19.38 20.8221 19.2733 21.2221 19.06C21.6221 18.8333 21.9354 18.54 22.1621 18.18C22.3888 17.8067 22.5021 17.3933 22.5021 16.94C22.5021 16.22 22.2488 15.6267 21.7421 15.16C21.2488 14.6933 20.6221 14.46 19.8621 14.46C19.1154 14.46 18.4954 14.6933 18.0021 15.16C17.5088 15.6133 17.2621 16.1933 17.2621 16.9C17.2621 17.6467 17.5088 18.2467 18.0021 18.7C18.4954 19.1533 19.1221 19.38 19.8821 19.38Z" fill="white"/>
</svg>
