<svg width="40" height="40" viewBox="0 0 40 40" fill="none" xmlns="http://www.w3.org/2000/svg">
<rect width="40" height="40" rx="20" fill="#E20626"/>
<path d="M20.0109 26.74C19.0509 26.74 18.1843 26.5733 17.4109 26.24C16.6376 25.8933 16.0176 25.4067 15.5509 24.78C15.0976 24.1533 14.8709 23.4267 14.8709 22.6C14.8709 21.7467 15.0909 21 15.5309 20.36C15.9843 19.72 16.5776 19.26 17.3109 18.98C16.6709 18.7 16.1643 18.3 15.7909 17.78C15.4176 17.2467 15.2309 16.6533 15.2309 16C15.2309 15.3333 15.4109 14.72 15.7709 14.16C16.1309 13.5867 16.6643 13.1267 17.3709 12.78C18.0909 12.4333 18.9709 12.26 20.0109 12.26C21.0509 12.26 21.9243 12.4333 22.6309 12.78C23.3376 13.1267 23.8709 13.5867 24.2309 14.16C24.5909 14.72 24.7709 15.3333 24.7709 16C24.7709 16.64 24.5776 17.2333 24.1909 17.78C23.8176 18.3133 23.3176 18.7133 22.6909 18.98C23.4376 19.26 24.0309 19.72 24.4709 20.36C24.9109 21 25.1309 21.7467 25.1309 22.6C25.1309 23.4267 24.9043 24.1533 24.4509 24.78C23.9976 25.4067 23.3776 25.8933 22.5909 26.24C21.8176 26.5733 20.9576 26.74 20.0109 26.74ZM20.0109 18.22C20.7043 18.22 21.2509 18.04 21.6509 17.68C22.0509 17.32 22.2509 16.86 22.2509 16.3C22.2509 15.6867 22.0509 15.2067 21.6509 14.86C21.2643 14.5133 20.7176 14.34 20.0109 14.34C19.2909 14.34 18.7376 14.5133 18.3509 14.86C17.9643 15.2067 17.7709 15.6867 17.7709 16.3C17.7709 16.8733 17.9643 17.34 18.3509 17.7C18.7509 18.0467 19.3043 18.22 20.0109 18.22ZM20.0109 24.6C20.8643 24.6 21.5109 24.3933 21.9509 23.98C22.3909 23.5533 22.6109 23.02 22.6109 22.38C22.6109 21.6733 22.3776 21.12 21.9109 20.72C21.4576 20.32 20.8243 20.12 20.0109 20.12C19.1976 20.12 18.5509 20.32 18.0709 20.72C17.6043 21.12 17.3709 21.6733 17.3709 22.38C17.3709 23.02 17.5909 23.5533 18.0309 23.98C18.4843 24.3933 19.1443 24.6 20.0109 24.6Z" fill="white"/>
</svg>
