<svg width="40" height="40" viewBox="0 0 40 40" fill="none" xmlns="http://www.w3.org/2000/svg">
<rect width="40" height="40" rx="20" fill="#E20626"/>
<path d="M20.2821 26.74C19.2288 26.74 18.3421 26.5467 17.6221 26.16C16.9021 25.7733 16.3221 25.2533 15.8821 24.6C15.4421 23.9467 15.1221 23.22 14.9221 22.42C14.7354 21.62 14.6421 20.8 14.6421 19.96C14.6421 18.4 14.8621 17.0467 15.3021 15.9C15.7421 14.74 16.3754 13.8467 17.2021 13.22C18.0288 12.58 19.0288 12.26 20.2021 12.26C21.1621 12.26 21.9754 12.4533 22.6421 12.84C23.3221 13.2133 23.8488 13.7067 24.2221 14.32C24.5954 14.9333 24.8154 15.5933 24.8821 16.3H22.5021C22.3821 15.6867 22.1221 15.2133 21.7221 14.88C21.3221 14.5467 20.8088 14.38 20.1821 14.38C19.2888 14.38 18.5688 14.7933 18.0221 15.62C17.4754 16.4333 17.1821 17.68 17.1421 19.36C17.4621 18.8133 17.9421 18.36 18.5821 18C19.2221 17.64 19.9354 17.46 20.7221 17.46C21.4954 17.46 22.2221 17.6467 22.9021 18.02C23.5821 18.3933 24.1288 18.92 24.5421 19.6C24.9688 20.28 25.1821 21.08 25.1821 22C25.1821 22.84 24.9754 23.62 24.5621 24.34C24.1621 25.06 23.5888 25.64 22.8421 26.08C22.1088 26.52 21.2554 26.74 20.2821 26.74ZM20.1421 24.54C20.8888 24.54 21.5021 24.3133 21.9821 23.86C22.4754 23.3933 22.7221 22.8067 22.7221 22.1C22.7221 21.3533 22.4754 20.7533 21.9821 20.3C21.4888 19.8467 20.8621 19.62 20.1021 19.62C19.6088 19.62 19.1621 19.7333 18.7621 19.96C18.3754 20.1733 18.0688 20.4667 17.8421 20.84C17.6154 21.2 17.5021 21.6067 17.5021 22.06C17.5021 22.78 17.7488 23.3733 18.2421 23.84C18.7488 24.3067 19.3821 24.54 20.1421 24.54Z" fill="white"/>
</svg>
