<svg width="40" height="40" viewBox="0 0 40 40" fill="none" xmlns="http://www.w3.org/2000/svg">
<rect width="40" height="40" rx="20" fill="#E20626"/>
<path d="M19.983 26.74C19.063 26.74 18.2296 26.58 17.483 26.26C16.7363 25.9267 16.1363 25.42 15.683 24.74C15.2296 24.06 14.9896 23.2067 14.963 22.18H17.483C17.4963 22.86 17.7163 23.4333 18.143 23.9C18.583 24.3533 19.1963 24.58 19.983 24.58C20.7296 24.58 21.303 24.3733 21.703 23.96C22.103 23.5467 22.303 23.0267 22.303 22.4C22.303 21.6667 22.0363 21.1133 21.503 20.74C20.983 20.3533 20.3096 20.16 19.483 20.16H18.443V18.06H19.503C20.183 18.06 20.7496 17.9 21.203 17.58C21.6563 17.26 21.883 16.7867 21.883 16.16C21.883 15.64 21.7096 15.2267 21.363 14.92C21.0296 14.6 20.563 14.44 19.963 14.44C19.3096 14.44 18.7963 14.6333 18.423 15.02C18.063 15.4067 17.863 15.88 17.823 16.44H15.323C15.3763 15.1467 15.823 14.1267 16.663 13.38C17.5163 12.6333 18.6163 12.26 19.963 12.26C20.923 12.26 21.7296 12.4333 22.383 12.78C23.0496 13.1133 23.5496 13.56 23.883 14.12C24.2296 14.68 24.403 15.3 24.403 15.98C24.403 16.7667 24.183 17.4333 23.743 17.98C23.3163 18.5133 22.783 18.8733 22.143 19.06C22.9296 19.22 23.5696 19.6067 24.063 20.22C24.5563 20.82 24.803 21.58 24.803 22.5C24.803 23.2733 24.6163 23.98 24.243 24.62C23.8696 25.26 23.323 25.7733 22.603 26.16C21.8963 26.5467 21.023 26.74 19.983 26.74Z" fill="white"/>
</svg>
