<svg width="40" height="40" viewBox="0 0 40 40" fill="none" xmlns="http://www.w3.org/2000/svg">
<rect width="40" height="40" rx="20" fill="#E20626"/>
<path d="M15.3071 26.5V24.64C16.1604 23.9333 16.9871 23.2333 17.7871 22.54C18.6004 21.8467 19.3204 21.16 19.9471 20.48C20.5871 19.8 21.0938 19.14 21.4671 18.5C21.8538 17.8467 22.0471 17.2133 22.0471 16.6C22.0471 16.0267 21.8871 15.52 21.5671 15.08C21.2604 14.64 20.7471 14.42 20.0271 14.42C19.2938 14.42 18.7404 14.66 18.3671 15.14C17.9938 15.62 17.8071 16.2 17.8071 16.88H15.3271C15.3538 15.8533 15.5804 15 16.0071 14.32C16.4338 13.6267 17.0004 13.1133 17.7071 12.78C18.4138 12.4333 19.2071 12.26 20.0871 12.26C21.5138 12.26 22.6204 12.6533 23.4071 13.44C24.2071 14.2133 24.6071 15.22 24.6071 16.46C24.6071 17.2333 24.4271 17.9867 24.0671 18.72C23.7204 19.4533 23.2604 20.16 22.6871 20.84C22.1138 21.52 21.4938 22.16 20.8271 22.76C20.1604 23.3467 19.5138 23.8933 18.8871 24.4H24.9471V26.5H15.3071Z" fill="white"/>
</svg>
