<svg width="19" height="14" viewBox="0 0 19 14" fill="none" xmlns="http://www.w3.org/2000/svg">
<path d="M4.341 13.558C3.13233 13.558 2.15233 13.1333 1.401 12.284C0.682333 11.402 0.323 10.2587 0.323 8.854C0.323 7.02467 0.862 5.326 1.94 3.758C3.018 2.15733 4.35733 0.964999 5.958 0.181L6.252 0.768998C5.566 1.29167 4.96167 1.96133 4.439 2.778C3.91633 3.59466 3.54067 4.60733 3.312 5.816L4.341 6.061C5.48433 6.32233 6.36633 6.81233 6.987 7.531C7.64033 8.217 7.967 9.05 7.967 10.03C7.967 11.0753 7.60767 11.9247 6.889 12.578C6.203 13.2313 5.35367 13.558 4.341 13.558ZM14.68 13.558C13.4713 13.558 12.4913 13.1333 11.74 12.284C11.0213 11.402 10.662 10.2587 10.662 8.854C10.662 7.02467 11.201 5.326 12.279 3.758C13.357 2.15733 14.6963 0.964999 16.297 0.181L16.591 0.768998C15.905 1.29167 15.3007 1.96133 14.778 2.778C14.2553 3.59466 13.8797 4.60733 13.651 5.816L14.68 6.061C15.8233 6.32233 16.7053 6.81233 17.326 7.531C17.9793 8.217 18.306 9.05 18.306 10.03C18.306 11.0753 17.9467 11.9247 17.228 12.578C16.542 13.2313 15.6927 13.558 14.68 13.558Z" fill="#E20626"/>
</svg>
