<svg width="19" height="16" viewBox="0 0 19 16" fill="none" xmlns="http://www.w3.org/2000/svg">
<g clip-path="url(#clip0_3950_7981)">
<path d="M17.2364 4.29875e-09H13.1675C13.0147 -1.12792e-05 12.8634 0.030084 12.7223 0.0885659C12.5811 0.147048 12.4529 0.23277 12.3449 0.340833L2.7407 9.94498C2.63264 10.053 2.54693 10.1812 2.48845 10.3224C2.42998 10.4635 2.39989 10.6148 2.3999 10.7675V14.8365C2.39989 14.9893 2.42997 15.1406 2.48843 15.2818C2.54689 15.4229 2.63259 15.5512 2.74062 15.6592C2.84866 15.7673 2.97691 15.853 3.11807 15.9114C3.25923 15.9699 3.41052 16 3.5633 16H7.63229C7.78508 16 7.93636 15.9699 8.07751 15.9114C8.21866 15.8529 8.34689 15.7672 8.45489 15.6591L18.0592 6.05499C18.2773 5.83682 18.3999 5.54094 18.3999 5.23243V1.16343C18.3999 1.01064 18.3698 0.85935 18.3113 0.71819C18.2529 0.57703 18.1672 0.448769 18.0591 0.340732C17.9511 0.232695 17.8228 0.146997 17.6817 0.0885342C17.5405 0.0300709 17.3892 -1.31299e-05 17.2364 4.29875e-09Z" fill="#ABABAB"/>
<path d="M17.2366 16H13.1675C12.859 16 12.5631 15.8774 12.3449 15.6593L10.3999 13.7143V10.08C10.3999 9.52835 10.619 8.99929 11.0091 8.60922C11.3992 8.21914 11.9282 8 12.4799 8H16.1142L18.0592 9.945C18.2773 10.1632 18.3999 10.4591 18.3999 10.7676V14.8367C18.3999 15.1452 18.2773 15.4411 18.0592 15.6593C17.841 15.8774 17.5451 16 17.2366 16Z" fill="#8A8A8A"/>
<path d="M3.56323 0H7.63229C7.94083 4.71438e-07 8.23673 0.122566 8.45489 0.340733L10.3999 2.28573V5.91999C10.3999 6.19314 10.3461 6.46361 10.2416 6.71597C10.137 6.96833 9.98382 7.19762 9.79067 7.39077C9.59753 7.58392 9.36823 7.73713 9.11587 7.84166C8.86352 7.94619 8.59304 7.99999 8.31989 7.99999H4.6856L2.7406 6.05499C2.52246 5.83683 2.3999 5.54094 2.3999 5.23243V1.16333C2.3999 0.854797 2.52247 0.558899 2.74063 0.340732C2.9588 0.122565 3.2547 0 3.56323 0Z" fill="#CCCCCC"/>
<path opacity="0.2" d="M9.59982 3.98169V12.8183C9.60054 12.8634 9.59614 12.9084 9.58673 12.9524C9.55696 13.1339 9.46526 13.2987 9.32798 13.4173C9.1907 13.5359 9.01678 13.6007 8.83725 13.6H2.3999V3.20001H8.83725C8.93744 3.19984 9.03667 3.21993 9.12926 3.25915C9.22186 3.29838 9.30598 3.35595 9.37683 3.42857C9.44767 3.50119 9.50383 3.58743 9.54209 3.68235C9.58035 3.77726 9.59999 3.87899 9.59982 3.98169Z" fill="black"/>
<path opacity="0.1" d="M9.99989 4.2742V12.1258C9.99716 12.4099 9.88035 12.6816 9.67458 12.8824C9.46881 13.0833 9.19051 13.1973 8.89952 13.2H2.3999V3.20001H8.89952C9.19103 3.20102 9.47031 3.31451 9.67644 3.51574C9.88257 3.71698 9.99886 3.98962 9.99989 4.2742Z" fill="black"/>
<path opacity="0.2" d="M9.59989 3.97132V12.0287C9.60006 12.13 9.58046 12.2304 9.54219 12.3241C9.50393 12.4177 9.44777 12.5028 9.37692 12.5745C9.30607 12.6461 9.22194 12.703 9.12934 12.7416C9.03675 12.7803 8.93751 12.8002 8.83732 12.8H2.3999V3.20001H8.83732C8.9375 3.19984 9.03674 3.21967 9.12933 3.25837C9.22193 3.29707 9.30606 3.35388 9.3769 3.42554C9.44774 3.49719 9.5039 3.58229 9.54216 3.67595C9.58042 3.76961 9.60006 3.86998 9.59989 3.97132Z" fill="black"/>
<path opacity="0.1" d="M9.19989 3.97132V12.0287C9.20006 12.13 9.18066 12.2304 9.1428 12.3241C9.10495 12.4177 9.04938 12.5028 8.97928 12.5745C8.90918 12.6461 8.82594 12.703 8.73432 12.7416C8.6427 12.7803 8.54452 12.8002 8.44539 12.8H2.3999V3.20001H8.44539C8.54451 3.19984 8.6427 3.21967 8.73431 3.25837C8.82593 3.29707 8.90917 3.35388 8.97926 3.42554C9.04935 3.49719 9.10492 3.58229 9.14277 3.67595C9.18063 3.76961 9.20006 3.86998 9.19989 3.97132Z" fill="black"/>
<path d="M8.43333 3.20001H0.766655C0.343243 3.20001 0 3.54326 0 3.96667V11.6333C0 12.0568 0.343243 12.4 0.766655 12.4H8.43333C8.85674 12.4 9.19999 12.0568 9.19999 11.6333V3.96667C9.19999 3.54326 8.85674 3.20001 8.43333 3.20001Z" fill="#686563"/>
<path d="M6.28677 6.37999H4.1637V7.59165H6.15651V8.36819H4.1637V9.62669H6.39995V10.4H3.19995V5.59998H6.28677V6.37999Z" fill="white"/>
</g>
<defs>
<clipPath id="clip0_3950_7981">
<rect width="18.4" height="16" fill="white"/>
</clipPath>
</defs>
</svg>
