<svg width="16" height="16" viewBox="0 0 16 16" fill="none" xmlns="http://www.w3.org/2000/svg">
<g clip-path="url(#clip0_3952_8190)">
<path d="M14.8104 8.02332C14.8104 7.31783 14.7013 6.63492 14.5035 5.99506L11.4629 13.8859C13.4657 12.7009 14.8103 10.5198 14.8103 8.02332H14.8104Z" fill="#686563"/>
<path d="M5.84924 14.4788C6.52615 14.7062 7.2507 14.8284 8.00533 14.8284C8.79382 14.8284 9.54911 14.6949 10.2532 14.4481L8.17589 9.0625L5.84924 14.4788Z" fill="#686563"/>
<path d="M1.47712 6.09955C1.29739 6.70935 1.19922 7.35484 1.19922 8.02326C1.19922 10.5734 2.60316 12.7955 4.67836 13.9597L1.49795 6.14227L1.47712 6.09955Z" fill="#686563"/>
<path d="M4.94427 5.66062L4.65192 5.64755C4.01419 5.63697 4.08481 6.29904 4.08481 6.29904L6.34752 11.9742L7.86871 8.34068L7.01949 6.17859C6.67946 5.60693 5.84966 5.61293 5.84966 5.61293V5.31176H10.6074L10.6004 5.64579L10.1053 5.67652C9.4888 5.67652 9.61345 6.26301 9.61345 6.26301L11.6781 11.7782L12.2699 10.251C13.3196 7.87109 12.672 6.1098 12.672 6.1098C11.6208 3.94702 12.9492 3.63664 12.9492 3.63664C13.0332 3.62464 13.112 3.61795 13.1893 3.61439C11.9411 2.14759 10.0816 1.21716 8.00571 1.21716C5.19886 1.21716 2.78787 2.91808 1.74792 5.345L4.93296 5.31217L4.94423 5.66069L4.94427 5.66062Z" fill="#686563"/>
<path d="M15.6497 8.00073C15.6497 12.2182 12.2178 15.6504 8.00137 15.6504C3.78277 15.6504 0.350948 12.2182 0.350948 8.00073C0.350948 3.78214 3.78277 0.35138 8.00137 0.35138C12.2178 0.351725 15.6497 3.78217 15.6497 8.00073ZM8.00137 -0.0010376C3.58963 -0.0010376 -0.000366211 3.589 -0.000366211 8.00108C-0.000366211 12.4132 3.58967 16.0014 8.00137 16.0014C12.4124 16.0014 16 12.4131 16 8.00108C16 3.589 12.4124 -0.0010376 8.00137 -0.0010376Z" fill="#686563"/>
</g>
<defs>
<clipPath id="clip0_3952_8190">
<rect width="16" height="16" fill="white"/>
</clipPath>
</defs>
</svg>
