<svg width="16" height="16" viewBox="0 0 16 16" fill="none" xmlns="http://www.w3.org/2000/svg">
<g clip-path="url(#clip0_3951_9110)">
<path d="M8.00002 4.56888C4.85336 4.56888 2.30225 3.67999 2.30225 2.50665V13.4933C2.30225 14.6222 4.80891 15.5378 7.92002 15.5555H8.00002C11.1467 15.5555 13.6978 14.6667 13.6978 13.4933V2.50665C13.6978 3.65332 11.1467 4.56888 8.00002 4.56888Z" fill="#686563"/>
<path d="M13.6978 2.50668C13.6978 3.65335 11.1467 4.5689 8.00002 4.5689C4.85336 4.5689 2.30225 3.68001 2.30225 2.50668C2.30225 1.33335 4.85336 0.444458 8.00002 0.444458C11.1467 0.444458 13.6978 1.33335 13.6978 2.50668Z" fill="#E8E8E8"/>
<path d="M12.3734 2.33779C12.3734 3.06668 10.4089 3.65335 8.00004 3.65335C5.59115 3.65335 3.62671 3.06668 3.62671 2.33779C3.62671 1.60891 5.59115 1.03113 8.00004 1.03113C10.4089 1.03113 12.3734 1.61779 12.3734 2.33779Z" fill="#ABABAB"/>
<path d="M8.00001 2.66666C6.82694 2.6367 5.6574 2.80807 4.54224 3.17333C5.65846 3.5318 6.82835 3.69421 8.00001 3.65333C9.17405 3.68772 10.3449 3.51316 11.4578 3.13778C10.3394 2.78941 9.17079 2.63019 8.00001 2.66666Z" fill="#8A8A8A"/>
<path d="M11.4667 10.1333V7.11108H10.6667V10.7822H12.8534V10.1333H11.4667ZM5.12005 8.64886C4.95488 8.58243 4.80173 8.48935 4.66672 8.37331C4.63086 8.3354 4.60296 8.29071 4.58464 8.24186C4.56632 8.19301 4.55796 8.14099 4.56005 8.08886C4.55733 8.03668 4.56818 7.98468 4.59155 7.93794C4.61491 7.8912 4.65 7.85132 4.69338 7.82219C4.80271 7.74655 4.93393 7.70906 5.06672 7.71553C5.38331 7.7013 5.69575 7.79191 5.95561 7.97331V7.20886C5.67161 7.1032 5.3695 7.05486 5.06672 7.06664C4.71798 7.04807 4.37416 7.15532 4.09783 7.36886C3.97738 7.46173 3.88072 7.58188 3.81582 7.71942C3.75091 7.85696 3.71961 8.00796 3.72449 8.15997C3.72449 8.61331 4.00894 8.96886 4.61338 9.23553C4.8097 9.31882 4.99484 9.42632 5.16449 9.55553C5.20605 9.5904 5.23951 9.63392 5.26254 9.68304C5.28556 9.73217 5.29761 9.78572 5.29783 9.83997C5.29785 9.89392 5.28495 9.94709 5.26021 9.99503C5.23546 10.043 5.1996 10.0843 5.15561 10.1155C5.03463 10.1864 4.89561 10.2203 4.75561 10.2133C4.39808 10.2104 4.05378 10.0777 3.78672 9.83997V10.6666C4.08026 10.818 4.40776 10.8915 4.73783 10.88C5.1104 10.9021 5.47965 10.7988 5.78672 10.5866C5.89517 10.4839 5.97816 10.3573 6.02908 10.2169C6.08 10.0765 6.09746 9.9261 6.08005 9.77775C6.08432 9.55018 6.00529 9.3289 5.85783 9.15553C5.65015 8.93678 5.39878 8.76415 5.12005 8.64886ZM9.77783 10.0622C9.97963 9.72414 10.0814 9.33576 10.0712 8.94219C10.0511 8.60901 9.95042 8.28568 9.77783 7.99997C9.63906 7.72239 9.42297 7.49087 9.15561 7.3333C8.88467 7.17974 8.57814 7.10004 8.26672 7.10219C7.931 7.09481 7.59946 7.1777 7.30672 7.34219C7.0323 7.49533 6.80722 7.7235 6.65783 7.99997C6.50047 8.31427 6.42119 8.66186 6.42672 9.01331C6.42857 9.32206 6.50157 9.62623 6.64005 9.90219C6.77571 10.1768 6.98896 10.4055 7.25338 10.56C7.52187 10.7237 7.82799 10.8156 8.14227 10.8266L8.90672 11.7155H9.98227L8.88894 10.7377C9.25711 10.6273 9.57286 10.3874 9.77783 10.0622ZM8.88894 9.83997C8.808 9.94047 8.70489 10.0209 8.58769 10.0748C8.47048 10.1288 8.34236 10.1549 8.21338 10.1511C8.08345 10.1553 7.95439 10.1284 7.8369 10.0728C7.71942 10.0171 7.61689 9.93428 7.53783 9.83108C7.34994 9.57437 7.25865 9.2596 7.28005 8.94219C7.25942 8.62487 7.35063 8.31035 7.53783 8.05331C7.62149 7.95018 7.72719 7.8671 7.84718 7.81019C7.96716 7.75327 8.09837 7.72396 8.23116 7.72442C8.36097 7.71882 8.49009 7.74602 8.60661 7.8035C8.72312 7.86098 8.82328 7.9469 8.89783 8.05331C9.07295 8.31535 9.15726 8.62762 9.13783 8.94219C9.16884 9.26194 9.08016 9.58183 8.88894 9.83997Z" fill="url(#paint0_radial_3951_9110)"/>
</g>
<defs>
<radialGradient id="paint0_radial_3951_9110" cx="0" cy="0" r="1" gradientUnits="userSpaceOnUse" gradientTransform="translate(8.32005 9.39553) scale(6.28444)">
<stop stop-color="#F2F2F2"/>
<stop offset="0.58" stop-color="#EEEEEE"/>
<stop offset="1" stop-color="#E6E6E6"/>
</radialGradient>
<clipPath id="clip0_3951_9110">
<rect width="16" height="16" fill="white"/>
</clipPath>
</defs>
</svg>
