<svg width="16" height="16" viewBox="0 0 16 16" fill="none" xmlns="http://www.w3.org/2000/svg">
<g clip-path="url(#clip0_3952_8177)">
<path d="M9.58638 5.77902L7.98488 7.26923L6.49878 4.27176L7.26775 2.548C7.46239 2.20243 7.77997 2.20177 7.97461 2.548L9.58638 5.77902Z" fill="#ABABAB"/>
<path d="M7.98482 7.26919L2.00012 12.8366L6.49872 4.27173L7.98482 7.26919Z" fill="#686563"/>
<path d="M11.338 3.5013C11.6241 3.22631 11.9199 3.3201 11.9953 3.70975L13.553 12.7621L8.38911 15.857C8.20839 15.9567 7.72985 16 7.72985 16C7.72985 16 7.29304 15.9478 7.12656 15.8554L2 12.8364L11.338 3.5013Z" fill="#E8E8E8"/>
<path d="M6.4986 4.27174L2 12.8366L4.00375 0.318822C4.07753 -0.0711284 4.2995 -0.108682 4.49754 0.235516L6.4986 4.27174Z" fill="#ABABAB"/>
</g>
<defs>
<clipPath id="clip0_3952_8177">
<rect width="16" height="16" fill="white"/>
</clipPath>
</defs>
</svg>
